<svg xmlns="http://www.w3.org/2000/svg" width="500" height="500" viewBox="0 0 500 500">
  <g transform="translate(0,0)">
    <!-- Background circle -->
    <circle cx="250" cy="250" r="200" fill="#E8F5E9"/>
    
    <!-- Delivery person -->
    <!-- Head -->
    <circle cx="250" cy="150" r="40" fill="#FFD8B9"/>
    
    <!-- Hair -->
    <path d="M220 130 Q 230 110 250 110 Q 270 110 280 130" fill="#333"/>
    <rect x="220" y="120" width="10" height="20" fill="#333"/>
    <rect x="270" y="120" width="10" height="20" fill="#333"/>
    
    <!-- Face -->
    <circle cx="235" cy="140" r="5" fill="#333"/>
    <circle cx="265" cy="140" r="5" fill="#333"/>
    <path d="M240 160 Q 250 170 260 160" fill="none" stroke="#333" stroke-width="2"/>
    
    <!-- Body -->
    <rect x="220" y="190" width="60" height="80" fill="#25AB75" rx="10" ry="10"/>
    
    <!-- Arms -->
    <rect x="180" y="200" width="40" height="20" fill="#FFD8B9" rx="10" ry="10"/>
    <rect x="280" y="200" width="40" height="20" fill="#FFD8B9" rx="10" ry="10"/>
    
    <!-- Hands -->
    <circle cx="180" cy="210" r="15" fill="#FFB999"/>
    <circle cx="320" cy="210" r="15" fill="#FFB999"/>
    
    <!-- Legs -->
    <rect x="230" y="270" width="20" height="60" fill="#333" rx="5" ry="5"/>
    <rect x="250" y="270" width="20" height="60" fill="#333" rx="5" ry="5"/>
    
    <!-- Delivery cap -->
    <path d="M220 110 L 280 110 L 280 120 L 220 120 Z" fill="#25AB75"/>
    <path d="M210 120 L 290 120 L 280 130 L 220 130 Z" fill="#25AB75"/>
    
    <!-- Delivery bag -->
    <rect x="200" y="230" width="100" height="80" fill="#25AB75" rx="10" ry="10"/>
    <rect x="240" y="230" width="20" height="80" fill="#1E8A5E"/>
    <circle cx="250" cy="260" r="10" fill="#FFC700"/>
    
    <!-- Scooter -->
    <!-- Base -->
    <rect x="150" y="330" width="200" height="10" fill="#333" rx="5" ry="5"/>
    
    <!-- Wheels -->
    <circle cx="170" cy="360" r="30" fill="#333" stroke="#555" stroke-width="2"/>
    <circle cx="170" cy="360" r="20" fill="#555"/>
    <circle cx="170" cy="360" r="5" fill="#777"/>
    
    <circle cx="330" cy="360" r="30" fill="#333" stroke="#555" stroke-width="2"/>
    <circle cx="330" cy="360" r="20" fill="#555"/>
    <circle cx="330" cy="360" r="5" fill="#777"/>
    
    <!-- Body -->
    <path d="M180 330 L 320 330 L 300 300 L 200 300 Z" fill="#25AB75"/>
    
    <!-- Handlebars -->
    <rect x="200" y="280" width="10" height="20" fill="#333"/>
    <rect x="195" y="280" width="20" height="5" fill="#333"/>
    
    <!-- Seat -->
    <rect x="250" y="300" width="40" height="10" fill="#333" rx="5" ry="5"/>
    
    <!-- Logo -->
    <rect x="230" y="310" width="40" height="15" fill="#FFC700" rx="2" ry="2"/>
    <text x="235" y="322" font-family="Arial" font-size="10" fill="#333">JTG</text>
  </g>
</svg>